<svg xmlns="http://www.w3.org/2000/svg" width="16" height="16" viewBox="0 0 16 16">
  <path id="add_circle_FILL0_wght400_GRAD0_opsz48" d="M87.46-868h1.2v-3.32H92v-1.2H88.66V-876h-1.2v3.48H84v1.2h3.46Zm.545,4a7.744,7.744,0,0,1-3.11-.63,8.13,8.13,0,0,1-2.545-1.72,8.125,8.125,0,0,1-1.72-2.547A7.758,7.758,0,0,1,80-872.01a7.759,7.759,0,0,1,.63-3.113,8.005,8.005,0,0,1,1.72-2.537,8.211,8.211,0,0,1,2.547-1.71A7.758,7.758,0,0,1,88.01-880a7.758,7.758,0,0,1,3.113.63,8.089,8.089,0,0,1,2.537,1.71,8.079,8.079,0,0,1,1.71,2.54,7.777,7.777,0,0,1,.63,3.115,7.744,7.744,0,0,1-.63,3.11,8.171,8.171,0,0,1-1.71,2.542,8.076,8.076,0,0,1-2.54,1.72A7.737,7.737,0,0,1,88.005-864Zm0-1.2a6.532,6.532,0,0,0,4.81-1.99,6.581,6.581,0,0,0,1.98-4.82,6.555,6.555,0,0,0-1.976-4.81A6.557,6.557,0,0,0,88-878.8a6.576,6.576,0,0,0-4.81,1.976A6.54,6.54,0,0,0,81.2-872a6.553,6.553,0,0,0,1.99,4.81A6.565,6.565,0,0,0,88.01-865.2ZM88-872Z" transform="translate(-80 880)" fill="#676567"/>
</svg>
