<svg xmlns="http://www.w3.org/2000/svg" width="16.5" height="16.5" viewBox="0 0 16.5 16.5">
  <path id="Union_1" data-name="Union 1" d="M15.517-2398.669l-1.535-1.535a.576.576,0,0,1,0-.814.576.576,0,0,1,.814,0l1.535,1.535a.575.575,0,0,1,0,.813.574.574,0,0,1-.407.169A.574.574,0,0,1,15.517-2398.669ZM0-2407.133A7.875,7.875,0,0,1,7.866-2415a7.875,7.875,0,0,1,7.866,7.866,7.876,7.876,0,0,1-7.866,7.866A7.876,7.876,0,0,1,0-2407.133Zm1.151,0a6.723,6.723,0,0,0,6.715,6.715,6.723,6.723,0,0,0,6.715-6.715,6.723,6.723,0,0,0-6.715-6.716A6.723,6.723,0,0,0,1.151-2407.133Z" transform="translate(0 2415)" fill="#676567"/>
</svg>
